# Blender 4.2.1 LTS
# www.blender.org
mtllib Triangulin.mtl
o Cube
v -1.000000 -0.454777 0.592874
v -1.000000 -0.454777 0.592874
v -1.000000 -0.454777 0.592874
v -1.000000 -0.454777 -0.196235
v -1.000000 -0.454777 -0.196235
v -1.000000 -0.454777 -0.196235
v 1.000000 -0.454777 0.592874
v 1.000000 -0.454777 0.592874
v 1.000000 -0.454777 0.592874
v 0.010084 1.344652 0.592874
v 0.010084 1.344652 0.592874
v 0.010084 1.344652 0.592874
v 1.000000 -0.454777 -0.196235
v 1.000000 -0.454777 -0.196235
v 1.000000 -0.454777 -0.196235
v 0.010084 1.344652 -0.196235
v 0.010084 1.344652 -0.196235
v 0.010084 1.344652 -0.196235
vn -0.8720 0.4895 -0.0000
vn -0.0000 -0.0000 -1.0000
vn 0.8762 0.4820 -0.0000
vn -0.0000 -0.0000 1.0000
vn -0.0000 -1.0000 -0.0000
vt 0.610527 0.497351
vt 0.610527 0.395227
vt 0.559465 0.395227
vt 0.559465 0.497351
vt 0.559465 0.446289
vt 0.610527 0.446289
vt 0.472656 0.800852
vt 0.158203 0.316335
vt 0.783203 0.314453
s 0
usemtl Material.001
f 3/1/1 12/2/1 18/3/1
f 3/1/1 18/3/1 6/4/1
f 4/4/2 16/3/2 13/5/2
f 15/5/3 17/3/3 11/2/3
f 15/5/3 11/2/3 9/6/3
f 10/7/4 1/8/4 7/9/4
f 5/4/5 14/5/5 8/6/5
f 5/4/5 8/6/5 2/1/5
