# Made in Blockbench 4.10.4
mtllib Alarm.mtl

o beveled_cuboid
v 1.265625 2.0625 0.640625
v 1.265625 2.0625 -0.578125
v -1.265625 2.0625 0.640625
v -1.265625 2.0625 -0.578125
v 1.265625 0.0625 0.640625
v 1.265625 0.0625 -0.578125
v -1.265625 0.0625 0.640625
v -1.265625 0.0625 -0.578125
v -1.6875 0.5625 0.640625
v -1.6875 1.5625 0.640625
v -1.6875 0.5625 -0.578125
v -1.6875 1.5625 -0.578125
v 1.6875 0.5625 0.640625
v 1.6875 1.5625 0.640625
v 1.6875 0.5625 -0.578125
v 1.6875 1.5625 -0.578125
v 1.265625 0.5625 -0.4375
v 1.265625 1.5625 -0.4375
v -1.265625 0.5625 -0.4375
v -1.265625 1.5625 -0.4375
v 1.265625 0.5625 1.0625
v 1.265625 1.5625 1.0625
v -1.265625 0.5625 1.0625
v -1.265625 1.5625 1.0625
v 0.9453125 2.0625 0.3984375
v 0.9453125 2.0625 -0.3359375
v -0.9453125 2.0625 -0.3359375
v -0.9453125 2.0625 0.3984375
v 0.9453125 2.25 0.3984375
v 0.9453125 2.25 -0.3359375
v -0.9453125 2.25 -0.3359375
v -0.9453125 2.25 0.3984375
v 1.265625 1.5625 -0.5
v 1.265625 0.5625 -0.5
v -1.265625 1.5625 -0.5
v -1.265625 0.5625 -0.5
vt 0.15625 0.6796875
vt 0 0.6796875
vt 0 0.5546875
vt 0.15625 0.5546875
vt 0.7734375 0.65625
vt 0.7734375 0.78125
vt 0.6171875 0.78125
vt 0.6171875 0.65625
vt 0.3125 0.828125
vt 0.3125 0.921875
vt 0.078125 0.921875
vt 0.078125 0.828125
vt 0.2890625 0.5546875
vt 0.609375 0.5546875
vt 0.609375 0.7109375
vt 0.2890625 0.7109375
vt 0.6484375 0.421875
vt 0.6484375 0.546875
vt 0.328125 0.546875
vt 0.328125 0.421875
vt 0.7734375 0.6484375
vt 0.6171875 0.6484375
vt 0.6171875 0.5703125
vt 0.7734375 0.5703125
vt 0.8125 0.484375
vt 0.8125 0.5625
vt 0.65625 0.5625
vt 0.65625 0.484375
vt 0.78125 0.7890625
vt 0.78125 0.8671875
vt 0.4609375 0.8671875
vt 0.4609375 0.7890625
vt 0.384765625 0.994918597359618
vt 0.06835937500000006 0.994918597359618
vt 0.06835937500000006 0.929993597359618
vt 0.384765625 0.929993597359618
vt 0.65625 0.4765625
vt 0.65625 0.3984375
vt 0.8125 0.3984375
vt 0.8125 0.4765625
vt 0.65625 0.3125
vt 0.8125 0.3125
vt 0.8125 0.390625
vt 0.65625 0.390625
vt 0.328125 0.3359375
vt 0.6484375 0.3359375
vt 0.6484375 0.4140625
vt 0.328125 0.4140625
vt 0.0836999049251089 0.7514724170999851
vt 0.09477618727449741 0.6875
vt 0.4065438602284701 0.7414799327521551
vt 0.3954675778790816 0.8054523498521402
vt 0.0022740440519094796 0.8102116084171466
vt 0.057657440901850376 0.8054524583236995
vt 0.06835937500000006 0.9299934901427704
vt 0.012975978150059159 0.9347526402362176
vt 0.003547656250000003 0.31003359375000006
vt 0.003547656250000003 0.18503359375000006
vt 0.078125 0.18503359375000006
vt 0.078125 0.31003359375000006
vt 0.384765625 0.9299934901427704
vt 0.39546755909814957 0.8054524583236995
vt 0.45085095594809055 0.8102116084171466
vt 0.44014902184994087 0.9347526402362176
vt 0.0859375 0.18503359375000006
vt 0.16051484375 0.18503359375000006
vt 0.16051484375 0.31003359375000006
vt 0.0859375 0.31003359375000006
vt 0.04083671875000001 0.1122546875
vt 0.078125 0.18503359375000006
vt 0.003547656250000003 0.18503359375000006
vt 0.12322578125 0.1122546875
vt 0.16051484375 0.18503359375000006
vt 0.0859375 0.18503359375000006
vt 0.046581139771529834 0.7414799327521551
vt 0.057657440901850376 0.8054524583236995
vt 0.0022740440519094796 0.8102116084171466
vt 0.4065438602284701 0.7414799327521551
vt 0.45085095594809055 0.8102116084171466
vt 0.39546755909814957 0.8054524583236995
vt 0.04083671875000001 0.3828125
vt 0.003547656250000003 0.31003359375000006
vt 0.078125 0.31003359375000006
vt 0.12322578125 0.3828125
vt 0.0859375 0.31003359375000006
vt 0.16051484375 0.31003359375000006
vt 0.06835937500000006 0.994918597359618
vt 0.012975978150059159 0.9347526402362176
vt 0.06835937500000006 0.9299934901427704
vt 0.384765625 0.994918597359618
vt 0.384765625 0.9299934901427704
vt 0.44014902184994087 0.9347526402362176
vt 0.2783203125 0.5166015625
vt 0.2783203125 0.4248046875
vt 0.318359375 0.39453125
vt 0.318359375 0.546875
vt 0.0419921875 0.5166015625
vt 0.2783203125 0.5166015625
vt 0.318359375 0.546875
vt 0.001953125 0.546875
vt 0.0419921875 0.4248046875
vt 0.0419921875 0.5166015625
vt 0.001953125 0.546875
vt 0.001953125 0.39453125
vt 0.2783203125 0.4248046875
vt 0.0419921875 0.4248046875
vt 0.001953125 0.39453125
vt 0.318359375 0.39453125
vt 0.1640625 0.8203125
vt 0.0703125 0.8203125
vt 0.0703125 0.796875
vt 0.1640625 0.796875
vt 0.40625 0.328125
vt 0.171875 0.328125
vt 0.171875 0.3046875
vt 0.40625 0.3046875
vt 0.265625 0.8203125
vt 0.171875 0.8203125
vt 0.171875 0.796875
vt 0.265625 0.796875
vt 0.6484375 0.328125
vt 0.4140625 0.328125
vt 0.4140625 0.3046875
vt 0.6484375 0.3046875
vt 0.78125 1
vt 0.4609375 1
vt 0.4609375 0.875
vt 0.78125 0.875
vt 0.9765625 0.3046875
vt 0.65625 0.3046875
vt 0.65625 0.296875
vt 0.9765625 0.296875
vt 0.25 0.578125
vt 0.25 0.703125
vt 0.2421875 0.703125
vt 0.2421875 0.578125
vt 0.171875 0.2890625
vt 0.4921875 0.2890625
vt 0.4921875 0.296875
vt 0.171875 0.296875
vt 0.2578125 0.703125
vt 0.2578125 0.578125
vt 0.265625 0.578125
vt 0.265625 0.703125
vn 1 0 0
vn -1 0 0
vn 0 1 0
vn 0 -1 0
vn 0 0 1
vn 0.7642914835078908 0.6448709392097829 0
vn -0.7642914835078908 0.6448709392097829 0
vn 0 0.6448709392097829 0.7642914835078908
vn 0 -0.2707455769182841 -0.9626509401538991
vn 0.7642914835078908 -0.6448709392097829 0
vn -0.7642914835078908 -0.6448709392097829 0
vn 0 -0.6448709392097829 0.7642914835078908
vn 0 0.2707455769182841 -0.9626509401538991
vn -0.316227766016838 0 -0.948683298050514
vn 0.7071067811865476 0 0.7071067811865476
vn 0.316227766016838 0 -0.948683298050514
vn -0.7071067811865476 0 0.7071067811865476
vn 0.6072423306304252 -0.5123607164694213 0.6072423306304252
vn -0.6072423306304252 -0.5123607164694213 0.6072423306304252
vn -0.3055388643522844 0.25779841679723997 -0.9166165930568533
vn 0.3055388643522844 0.25779841679723997 -0.9166165930568533
vn 0.6072423306304252 0.5123607164694213 0.6072423306304252
vn -0.6072423306304252 0.5123607164694213 0.6072423306304252
vn -0.3055388643522844 -0.25779841679723997 -0.9166165930568533
vn 0.3055388643522844 -0.25779841679723997 -0.9166165930568533
vn 0 1 0
vn 0 1 0
vn 0 1 0
vn 0 1 0
vn 1 0 0
vn 0 0 -1
vn -1 0 0
vn 0 0 1
vn 0 0 -1
vn 0 1 0
vn 1 0 0
vn 0 -1 0
vn -1 0 0
usemtl m_ea13791a-1e96-094b-5d18-8f9647ba8e6a
f 16/1/1 14/2/1 13/3/1 15/4/1
f 9/5/2 10/6/2 12/7/2 11/8/2
f 29/9/3 30/10/3 31/11/3 32/12/3
f 8/13/4 6/14/4 5/15/4 7/16/4
f 21/17/5 22/18/5 24/19/5 23/20/5
f 2/21/6 1/22/6 14/23/6 16/24/6
f 10/25/7 3/26/7 4/27/7 12/28/7
f 22/29/8 1/30/8 3/31/8 24/32/8
f 4/33/9 2/34/9 18/35/9 20/36/9
f 13/37/10 5/38/10 6/39/10 15/40/10
f 8/41/11 7/42/11 9/43/11 11/44/11
f 7/45/12 5/46/12 21/47/12 23/48/12
f 17/49/13 6/50/13 8/51/13 19/52/13
f 15/53/14 17/54/14 18/55/14 16/56/14
f 22/57/15 21/58/15 13/59/15 14/60/15
f 20/61/16 19/62/16 11/63/16 12/64/16
f 9/65/17 23/66/17 24/67/17 10/68/17
f 5/69/18 13/70/18 21/71/18
f 7/72/19 23/73/19 9/74/19
f 6/75/20 17/76/20 15/77/20
f 8/78/21 11/79/21 19/80/21
f 1/81/22 22/82/22 14/83/22
f 3/84/23 10/85/23 24/86/23
f 2/87/24 16/88/24 18/89/24
f 4/90/25 20/91/25 12/92/25
f 26/93/26 25/94/26 1/95/26 2/96/26
f 27/97/27 26/98/27 2/99/27 4/100/27
f 28/101/28 27/102/28 4/103/28 3/104/28
f 25/105/29 28/106/29 3/107/29 1/108/29
f 30/109/30 29/110/30 25/111/30 26/112/30
f 31/113/31 30/114/31 26/115/31 27/116/31
f 32/117/32 31/118/32 27/119/32 28/120/32
f 29/121/33 32/122/33 28/123/33 25/124/33
f 35/125/34 33/126/34 34/127/34 36/128/34
f 33/129/35 35/130/35 20/131/35 18/132/35
f 34/133/36 33/134/36 18/135/36 17/136/36
f 36/137/37 34/138/37 17/139/37 19/140/37
f 35/141/38 36/142/38 19/143/38 20/144/38