# Made in Blockbench 4.10.4
mtllib RedButton.mtl

o cylinder
v -0.0625 1.3877787807814457e-17 0
v -0.375 8.326672684688674e-17 0
v -0.06249999999999997 0.13397459621556135 0.49999999999999994
v -0.37499999999999994 0.1339745962155614 0.49999999999999994
v -0.06249999999999992 0.3660254037844386 0.36602540378443865
v -0.37499999999999994 0.3660254037844387 0.36602540378443865
v -0.06249999999999989 0.49999999999999994 0.13397459621556132
v -0.3749999999999999 0.5 0.13397459621556132
v -0.06249999999999989 0.49999999999999994 -0.13397459621556138
v -0.3749999999999999 0.5 -0.13397459621556138
v -0.06249999999999992 0.36602540378443865 -0.3660254037844386
v -0.37499999999999994 0.3660254037844387 -0.3660254037844386
v -0.06249999999999997 0.13397459621556151 -0.4999999999999999
v -0.37499999999999994 0.13397459621556157 -0.4999999999999999
v -0.06250000000000003 -0.13397459621556113 -0.5
v -0.37500000000000006 -0.13397459621556104 -0.5
v -0.06250000000000008 -0.3660254037844386 -0.3660254037844387
v -0.37500000000000006 -0.3660254037844385 -0.3660254037844387
v -0.06250000000000011 -0.49999999999999994 -0.13397459621556126
v -0.3750000000000001 -0.4999999999999999 -0.13397459621556126
v -0.06250000000000011 -0.5 0.1339745962155611
v -0.3750000000000001 -0.4999999999999999 0.1339745962155611
v -0.06250000000000008 -0.3660254037844387 0.36602540378443854
v -0.37500000000000006 -0.3660254037844386 0.36602540378443854
v -0.06250000000000003 -0.1339745962155613 0.49999999999999994
v -0.37500000000000006 -0.1339745962155612 0.49999999999999994
vt 0.21650625 0.96650625
vt 0.15849375 1
vt 0.125 0.875
vt 0.40068125 0.828125
vt 0.46766875 0.828125
vt 0.46766875 0.90625
vt 0.40068125 0.90625
vt 0.36161875 0.53125
vt 0.41963125 0.56474375
vt 0.328125 0.65625
vt 0.25 0.90849375
vt 0.21650625 0.96650625
vt 0.125 0.875
vt 0.26670625 0.921875
vt 0.33369375 0.921875
vt 0.33369375 1
vt 0.26670625 1
vt 0.41963125 0.56474375
vt 0.453125 0.62275625
vt 0.328125 0.65625
vt 0.25 0.84150625
vt 0.25 0.90849375
vt 0.125 0.875
vt 0.33369375 0.921875
vt 0.40068125 0.921875
vt 0.40068125 1
vt 0.33369375 1
vt 0.453125 0.62275625
vt 0.453125 0.68974375
vt 0.328125 0.65625
vt 0.21650625 0.78349375
vt 0.25 0.84150625
vt 0.125 0.875
vt 0.40068125 0.921875
vt 0.46766875 0.921875
vt 0.46766875 1
vt 0.40068125 1
vt 0.453125 0.68974375
vt 0.41963125 0.74775625
vt 0.328125 0.65625
vt 0.15849375 0.75
vt 0.21650625 0.78349375
vt 0.125 0.875
vt 0.45420625 0.734375
vt 0.52119375 0.734375
vt 0.52119375 0.8125
vt 0.45420625 0.8125
vt 0.41963125 0.74775625
vt 0.36161875 0.78125
vt 0.328125 0.65625
vt 0.09150625 0.75
vt 0.15849375 0.75
vt 0.125 0.875
vt 0.52119375 0.734375
vt 0.58818125 0.734375
vt 0.58818125 0.8125
vt 0.52119375 0.8125
vt 0.36161875 0.78125
vt 0.29463125 0.78125
vt 0.328125 0.65625
vt 0.03349375 0.78349375
vt 0.09150625 0.75
vt 0.125 0.875
vt 0.58818125 0.734375
vt 0.6551687500000001 0.734375
vt 0.6551687500000001 0.8125
vt 0.58818125 0.8125
vt 0.29463125 0.78125
vt 0.23661875 0.74775625
vt 0.328125 0.65625
vt 0 0.84150625
vt 0.03349375 0.78349375
vt 0.125 0.875
vt 0.001081249999999992 0.5
vt 0.06806875 0.5
vt 0.06806875 0.578125
vt 0.001081249999999992 0.578125
vt 0.23661875 0.74775625
vt 0.203125 0.68974375
vt 0.328125 0.65625
vt 0 0.90849375
vt 0 0.84150625
vt 0.125 0.875
vt 0.06806875 0.5
vt 0.13505625 0.5
vt 0.13505625 0.578125
vt 0.06806875 0.578125
vt 0.203125 0.68974375
vt 0.203125 0.62275625
vt 0.328125 0.65625
vt 0.03349375 0.96650625
vt 0 0.90849375
vt 0.125 0.875
vt 0.13505625 0.5
vt 0.20204375000000002 0.5
vt 0.20204375000000002 0.578125
vt 0.13505625 0.578125
vt 0.203125 0.62275625
vt 0.23661875 0.56474375
vt 0.328125 0.65625
vt 0.09150625 1
vt 0.03349375 0.96650625
vt 0.125 0.875
vt 0.26670625 0.828125
vt 0.33369375 0.828125
vt 0.33369375 0.90625
vt 0.26670625 0.90625
vt 0.23661875 0.56474375
vt 0.29463125 0.53125
vt 0.328125 0.65625
vt 0.15849375 1
vt 0.09150625 1
vt 0.125 0.875
vt 0.33369375 0.828125
vt 0.40068125 0.828125
vt 0.40068125 0.90625
vt 0.33369375 0.90625
vt 0.29463125 0.53125
vt 0.36161875 0.53125
vt 0.328125 0.65625
vn 1 -2.220446049250313e-16 0
vn 1.1102230246251562e-16 0.49999999999999983 0.8660254037844387
vn -1 2.220446049250313e-16 0
vn 1 -2.220446049250313e-16 0
vn 1.9229626863835643e-16 0.8660254037844388 0.5
vn -1 2.220446049250313e-16 0
vn 1 -2.220446049250313e-16 0
vn 2.220446049250313e-16 1 0
vn -1 2.220446049250313e-16 0
vn 1 -2.220446049250313e-16 0
vn 1.922962686383564e-16 0.8660254037844387 -0.49999999999999994
vn -1 2.220446049250313e-16 0
vn 1 -2.220446049250313e-16 0
vn 1.1102230246251568e-16 0.5000000000000001 -0.8660254037844386
vn -1 2.220446049250313e-16 0
vn 1 -2.220446049250313e-16 0
vn 9.200215557467481e-32 4.143408735633879e-16 -1
vn -1 2.220446049250313e-16 0
vn 1 -2.220446049250313e-16 0
vn -1.1102230246251557e-16 -0.4999999999999996 -0.8660254037844389
vn -1 2.220446049250313e-16 0
vn 1 -2.220446049250313e-16 0
vn -1.9229626863835643e-16 -0.8660254037844388 -0.4999999999999998
vn -1 2.220446049250313e-16 0
vn 1 -2.220446049250313e-16 0
vn -2.220446049250313e-16 -1 -2.0717043678169412e-16
vn -1 2.220446049250313e-16 0
vn 1 -2.220446049250313e-16 0
vn -1.9229626863835646e-16 -0.8660254037844389 0.4999999999999996
vn -1 2.220446049250313e-16 0
vn 1 -2.220446049250313e-16 0
vn -1.1102230246251563e-16 -0.4999999999999999 0.8660254037844386
vn -1 2.220446049250313e-16 0
vn 1 -2.220446049250313e-16 0
vn 0 0 1
vn -1 2.220446049250313e-16 0
usemtl m_d1ce80e2-1ccc-edf7-759d-892462d09b74
f 5/1/1 3/2/1 1/3/1
f 3/4/2 5/5/2 6/6/2 4/7/2
f 4/8/3 6/9/3 2/10/3
f 7/11/4 5/12/4 1/13/4
f 5/14/5 7/15/5 8/16/5 6/17/5
f 6/18/6 8/19/6 2/20/6
f 9/21/7 7/22/7 1/23/7
f 7/24/8 9/25/8 10/26/8 8/27/8
f 8/28/9 10/29/9 2/30/9
f 11/31/10 9/32/10 1/33/10
f 9/34/11 11/35/11 12/36/11 10/37/11
f 10/38/12 12/39/12 2/40/12
f 13/41/13 11/42/13 1/43/13
f 11/44/14 13/45/14 14/46/14 12/47/14
f 12/48/15 14/49/15 2/50/15
f 15/51/16 13/52/16 1/53/16
f 13/54/17 15/55/17 16/56/17 14/57/17
f 14/58/18 16/59/18 2/60/18
f 17/61/19 15/62/19 1/63/19
f 15/64/20 17/65/20 18/66/20 16/67/20
f 16/68/21 18/69/21 2/70/21
f 19/71/22 17/72/22 1/73/22
f 17/74/23 19/75/23 20/76/23 18/77/23
f 18/78/24 20/79/24 2/80/24
f 21/81/25 19/82/25 1/83/25
f 19/84/26 21/85/26 22/86/26 20/87/26
f 20/88/27 22/89/27 2/90/27
f 23/91/28 21/92/28 1/93/28
f 21/94/29 23/95/29 24/96/29 22/97/29
f 22/98/30 24/99/30 2/100/30
f 25/101/31 23/102/31 1/103/31
f 23/104/32 25/105/32 26/106/32 24/107/32
f 24/108/33 26/109/33 2/110/33
f 3/111/34 25/112/34 1/113/34
f 25/114/35 3/115/35 4/116/35 26/117/35
f 26/118/36 4/119/36 2/120/36