# Made in Blockbench 4.10.4
mtllib Cabinet.mtl

o cuboid
v 1.5 -1.463862559241706 2.75
v 1.5 -1.463862559241706 -1.5
v 1.5 -2.125 2.75
v 1.5 -2.125 -1.5
v -4.375 -1.463862559241706 2.75
v -4.375 -1.463862559241706 -1.5
v -4.375 -2.125 2.75
v -4.375 -2.125 -1.5
v 1.5 -1.463862559241706 0.90625
v -4.375 -1.463862559241706 0.90625
v -4.375 -2.125 0.90625
v 1.5 -2.125 0.90625
v 0.875 -1.463862559241706 1.90625
v 0.875 -1.463862559241706 -1.5
v 0.875 -2.125 -1.5
v 0.875 -2.125 0.90625
v 0.875 -2.125 2.75
v 0.875 -1.463862559241706 2.75
v -3.75 -1.463862559241706 1.90625
v -3.75 -1.463862559241706 -1.5
v -3.75 -2.125 -1.5
v -3.75 -2.125 0.90625
v -3.75 -2.125 2.75
v -3.75 -1.463862559241706 2.75
v 1.5 1.4286137440758298 -1.5
v 0.875 1.4286137440758298 1.90625
v 0.875 1.4286137440758298 -1.5
v 1.5 1.4286137440758298 0.90625
v 0.875 1.4286137440758298 2.75
v 1.5 1.4286137440758298 2.75
v -3.75 1.4286137440758298 2.75
v -3.75 1.4286137440758298 1.90625
v -4.375 1.4286137440758298 0.90625
v -3.75 1.4286137440758298 -1.5
v -4.375 1.4286137440758298 -1.5
v -4.375 1.4286137440758298 2.75
v 1.5 2.1723933649289098 -1.5
v 0.875 2.1723933649289098 1.90625
v 0.875 2.1723933649289098 -1.5
v 1.5 2.1723933649289098 0.90625
v 0.875 2.1723933649289098 2.75
v 1.5 2.1723933649289098 2.75
v -3.75 2.1723933649289098 2.75
v -3.75 2.1723933649289098 1.90625
v -4.375 2.1723933649289098 2.75
v -4.375 2.1723933649289098 0.90625
v -3.75 2.1723933649289098 -1.5
v -4.375 2.1723933649289098 -1.5
v 0.875 5.312796208530806 1.90625
v -3.75 5.312796208530806 2.75
v -3.75 5.312796208530806 1.90625
v 0.875 5.312796208530806 2.75
v 1.5 5.312796208530806 0.90625
v 1.5 5.312796208530806 2.75
v 1.5 5.312796208530806 -1.5
v 0.875 5.312796208530806 -1.5
v -4.375 5.312796208530806 0.90625
v -3.75 5.312796208530806 -1.5
v -4.375 5.312796208530806 -1.5
v -4.375 5.312796208530806 2.75
v 1.5 6.2218601895734595 -1.5
v 0.875 6.2218601895734595 1.90625
v 0.875 6.2218601895734595 -1.5
v 1.5 6.2218601895734595 0.90625
v -3.75 6.2218601895734595 2.75
v -3.75 6.2218601895734595 1.90625
v 0.875 6.2218601895734595 2.75
v -4.375 6.2218601895734595 0.90625
v -3.75 6.2218601895734595 -1.5
v -4.375 6.2218601895734595 -1.5
v -4.375 6.2218601895734595 2.75
v 1.5 6.2218601895734595 2.75
v -4.375 9.527547393364928 0.90625
v -3.75 9.527547393364928 1.90625
v -3.75 9.527547393364928 -1.5
v -4.375 9.527547393364928 -1.5
v 0.875 9.527547393364928 1.90625
v -3.75 9.527547393364928 2.75
v 0.875 9.527547393364928 2.75
v 1.5 9.527547393364928 0.90625
v 1.5 9.527547393364928 2.75
v -4.375 9.527547393364928 2.75
v 1.5 9.527547393364928 -1.5
v 0.875 9.527547393364928 -1.5
v -4.375 10.51925355450237 0.90625
v -3.75 10.51925355450237 1.90625
v -3.75 10.51925355450237 -1.5
v -4.375 10.51925355450237 -1.5
v 0.875 10.51925355450237 1.90625
v -3.75 10.51925355450237 2.75
v 0.875 10.51925355450237 2.75
v 1.5 10.51925355450237 0.90625
v 1.5 10.51925355450237 2.75
v -4.375 10.51925355450237 2.75
v 1.5 10.51925355450237 -1.5
v 0.875 10.51925355450237 -1.5
v -4.375 14.238151658767773 0.90625
v -3.75 14.238151658767773 1.90625
v -3.75 14.238151658767773 -1.5
v -4.375 14.238151658767773 -1.5
v 0.875 14.238151658767773 1.90625
v -3.75 14.238151658767773 2.75
v 0.875 14.238151658767773 2.75
v 1.5 14.238151658767773 0.90625
v 1.5 14.238151658767773 2.75
v -4.375 14.238151658767773 2.75
v 1.5 14.238151658767773 -1.5
v 0.875 14.238151658767773 -1.5
v -4.375 15.3125 0.90625
v -3.75 15.3125 0.90625
v -3.75 15.3125 -1.5
v -4.375 15.3125 -1.5
v 0.875 15.3125 0.90625
v -3.75 15.3125 2.75
v 0.875 15.3125 2.75
v 1.5 15.3125 0.90625
v 1.5 15.3125 2.75
v -4.375 15.3125 2.75
v 1.5 15.3125 -1.5
v 0.875 15.3125 -1.5
vt 0.50390625 0.603515625
vt 0.4287109375 0.603515625
vt 0.4287109375 0.587890625
vt 0.50390625 0.587890625
vt 0 0.173828125
vt 0.0751953125 0.173828125
vt 0.0751953125 0.189453125
vt 0 0.189453125
vt 0.68359375 0.5859375
vt 0.6640625 0.5859375
vt 0.6640625 0.5107421875
vt 0.68359375 0.5107421875
vt 0.689453125 0.9423828125
vt 0.669921875 0.9423828125
vt 0.669921875 0.8671875
vt 0.689453125 0.8671875
vt 0.18359375 0.603515625
vt 0.1640625 0.603515625
vt 0.1640625 0.587890625
vt 0.18359375 0.587890625
vt 0.185546875 0.587890625
vt 0.205078125 0.587890625
vt 0.205078125 0.603515625
vt 0.185546875 0.603515625
vt 0.68359375 0.5107421875
vt 0.6640625 0.5107421875
vt 0.6640625 0.453125
vt 0.68359375 0.453125
vt 0.1328125 0.189453125
vt 0.0751953125 0.189453125
vt 0.0751953125 0.173828125
vt 0.1328125 0.173828125
vt 0.689453125 1
vt 0.669921875 1
vt 0.669921875 0.9423828125
vt 0.689453125 0.9423828125
vt 0.37109375 0.587890625
vt 0.4287109375 0.587890625
vt 0.4287109375 0.603515625
vt 0.37109375 0.603515625
vt 0.650390625 0.865234375
vt 0.505859375 0.865234375
vt 0.505859375 0.7578125
vt 0.650390625 0.7578125
vt 0.205078125 0.587890625
vt 0.349609375 0.587890625
vt 0.349609375 0.603515625
vt 0.205078125 0.603515625
vt 0.669921875 0.9423828125
vt 0.525390625 0.9423828125
vt 0.525390625 0.8671875
vt 0.669921875 0.8671875
vt 0.669921875 1
vt 0.525390625 1
vt 0.525390625 0.9423828125
vt 0.669921875 0.9423828125
vt 0.1640625 0.603515625
vt 0.01953125 0.603515625
vt 0.01953125 0.587890625
vt 0.1640625 0.587890625
vt 0.6640625 0.5107421875
vt 0.51953125 0.5107421875
vt 0.51953125 0.453125
vt 0.6640625 0.453125
vt 0.5 0.5107421875
vt 0.51953125 0.5107421875
vt 0.51953125 0.5859375
vt 0.5 0.5859375
vt 0.369140625 0.603515625
vt 0.349609375 0.603515625
vt 0.349609375 0.587890625
vt 0.369140625 0.587890625
vt 0.505859375 0.8671875
vt 0.525390625 0.8671875
vt 0.525390625 0.9423828125
vt 0.505859375 0.9423828125
vt 0.505859375 0.9423828125
vt 0.525390625 0.9423828125
vt 0.525390625 1
vt 0.505859375 1
vt 0 0.587890625
vt 0.01953125 0.587890625
vt 0.01953125 0.603515625
vt 0 0.603515625
vt 0.5 0.453125
vt 0.51953125 0.453125
vt 0.51953125 0.5107421875
vt 0.5 0.5107421875
vt 0.205078125 0.671875
vt 0.185546875 0.671875
vt 0.185546875 0.603515625
vt 0.205078125 0.603515625
vt 0.38818359375 0.2578125
vt 0.28173828125 0.2578125
vt 0.28173828125 0.189453125
vt 0.38818359375 0.189453125
vt 0.50390625 0.671875
vt 0.4287109375 0.671875
vt 0.4287109375 0.603515625
vt 0.50390625 0.603515625
vt 0.18359375 0.671875
vt 0.1640625 0.671875
vt 0.1640625 0.603515625
vt 0.18359375 0.603515625
vt 0.4287109375 0.671875
vt 0.37109375 0.671875
vt 0.37109375 0.603515625
vt 0.4287109375 0.603515625
vt 0.279296875 0.283203125
vt 0.134765625 0.283203125
vt 0.134765625 0.21484375
vt 0.279296875 0.21484375
vt 0.1640625 0.671875
vt 0.01953125 0.671875
vt 0.01953125 0.603515625
vt 0.1640625 0.603515625
vt 0.49755859375 0.2578125
vt 0.39111328125 0.2578125
vt 0.39111328125 0.189453125
vt 0.49755859375 0.189453125
vt 0.369140625 0.671875
vt 0.349609375 0.671875
vt 0.349609375 0.603515625
vt 0.369140625 0.603515625
vt 0.0751953125 0.2578125
vt 0 0.2578125
vt 0 0.189453125
vt 0.0751953125 0.189453125
vt 0.01953125 0.671875
vt 0 0.671875
vt 0 0.603515625
vt 0.01953125 0.603515625
vt 0.1328125 0.2578125
vt 0.0751953125 0.2578125
vt 0.0751953125 0.189453125
vt 0.1328125 0.189453125
vt 0.205078125 0.689453125
vt 0.185546875 0.689453125
vt 0.185546875 0.671875
vt 0.205078125 0.671875
vt 0.38818359375 0.275390625
vt 0.28173828125 0.275390625
vt 0.28173828125 0.2578125
vt 0.38818359375 0.2578125
vt 0.50390625 0.689453125
vt 0.4287109375 0.689453125
vt 0.4287109375 0.671875
vt 0.50390625 0.671875
vt 0.18359375 0.689453125
vt 0.1640625 0.689453125
vt 0.1640625 0.671875
vt 0.18359375 0.671875
vt 0.4287109375 0.689453125
vt 0.37109375 0.689453125
vt 0.37109375 0.671875
vt 0.4287109375 0.671875
vt 0.279296875 0.30078125
vt 0.134765625 0.30078125
vt 0.134765625 0.283203125
vt 0.279296875 0.283203125
vt 0.1640625 0.689453125
vt 0.01953125 0.689453125
vt 0.01953125 0.671875
vt 0.1640625 0.671875
vt 0.01953125 0.689453125
vt 0 0.689453125
vt 0 0.671875
vt 0.01953125 0.671875
vt 0.1328125 0.275390625
vt 0.0751953125 0.275390625
vt 0.0751953125 0.2578125
vt 0.1328125 0.2578125
vt 0.49755859375 0.275390625
vt 0.39111328125 0.275390625
vt 0.39111328125 0.2578125
vt 0.49755859375 0.2578125
vt 0.369140625 0.689453125
vt 0.349609375 0.689453125
vt 0.349609375 0.671875
vt 0.369140625 0.671875
vt 0.0751953125 0.275390625
vt 0 0.275390625
vt 0 0.2578125
vt 0.0751953125 0.2578125
vt 0.505859375 0.6484375
vt 0.650390625 0.6484375
vt 0.650390625 0.755859375
vt 0.505859375 0.755859375
vt 0.64453125 0.34375
vt 0.64453125 0.451171875
vt 0.5 0.451171875
vt 0.5 0.34375
vt 0.685546875 0.4921875
vt 0.685546875 0.474609375
vt 0.830078125 0.474609375
vt 0.830078125 0.4921875
vt 0.279296875 0.375
vt 0.134765625 0.375
vt 0.134765625 0.30078125
vt 0.279296875 0.30078125
vt 0.1640625 0.763671875
vt 0.01953125 0.763671875
vt 0.01953125 0.689453125
vt 0.1640625 0.689453125
vt 0.18359375 0.763671875
vt 0.1640625 0.763671875
vt 0.1640625 0.689453125
vt 0.18359375 0.689453125
vt 0.4287109375 0.763671875
vt 0.37109375 0.763671875
vt 0.37109375 0.689453125
vt 0.4287109375 0.689453125
vt 0.205078125 0.763671875
vt 0.185546875 0.763671875
vt 0.185546875 0.689453125
vt 0.205078125 0.689453125
vt 0.38818359375 0.349609375
vt 0.28173828125 0.349609375
vt 0.28173828125 0.275390625
vt 0.38818359375 0.275390625
vt 0.50390625 0.763671875
vt 0.4287109375 0.763671875
vt 0.4287109375 0.689453125
vt 0.50390625 0.689453125
vt 0.49755859375 0.349609375
vt 0.39111328125 0.349609375
vt 0.39111328125 0.275390625
vt 0.49755859375 0.275390625
vt 0.369140625 0.763671875
vt 0.349609375 0.763671875
vt 0.349609375 0.689453125
vt 0.369140625 0.689453125
vt 0.0751953125 0.349609375
vt 0 0.349609375
vt 0 0.275390625
vt 0.0751953125 0.275390625
vt 0.01953125 0.763671875
vt 0 0.763671875
vt 0 0.689453125
vt 0.01953125 0.689453125
vt 0.1328125 0.349609375
vt 0.0751953125 0.349609375
vt 0.0751953125 0.275390625
vt 0.1328125 0.275390625
vt 0.205078125 0.78515625
vt 0.185546875 0.78515625
vt 0.185546875 0.763671875
vt 0.205078125 0.763671875
vt 0.38818359375 0.37109375
vt 0.28173828125 0.37109375
vt 0.28173828125 0.349609375
vt 0.38818359375 0.349609375
vt 0.50390625 0.78515625
vt 0.4287109375 0.78515625
vt 0.4287109375 0.763671875
vt 0.50390625 0.763671875
vt 0.279296875 0.396484375
vt 0.134765625 0.396484375
vt 0.134765625 0.375
vt 0.279296875 0.375
vt 0.1640625 0.78515625
vt 0.01953125 0.78515625
vt 0.01953125 0.763671875
vt 0.1640625 0.763671875
vt 0.49755859375 0.37109375
vt 0.39111328125 0.37109375
vt 0.39111328125 0.349609375
vt 0.49755859375 0.349609375
vt 0.369140625 0.78515625
vt 0.349609375 0.78515625
vt 0.349609375 0.763671875
vt 0.369140625 0.763671875
vt 0.0751953125 0.37109375
vt 0 0.37109375
vt 0 0.349609375
vt 0.0751953125 0.349609375
vt 0.01953125 0.78515625
vt 0 0.78515625
vt 0 0.763671875
vt 0.01953125 0.763671875
vt 0.1328125 0.37109375
vt 0.0751953125 0.37109375
vt 0.0751953125 0.349609375
vt 0.1328125 0.349609375
vt 0.18359375 0.78515625
vt 0.1640625 0.78515625
vt 0.1640625 0.763671875
vt 0.18359375 0.763671875
vt 0.4287109375 0.78515625
vt 0.37109375 0.78515625
vt 0.37109375 0.763671875
vt 0.4287109375 0.763671875
vt 0.685546875 0.515625
vt 0.685546875 0.494140625
vt 0.830078125 0.494140625
vt 0.830078125 0.515625
vt 0.646484375 0.34375
vt 0.791015625 0.34375
vt 0.791015625 0.451171875
vt 0.646484375 0.451171875
vt 0.796875 0.7578125
vt 0.796875 0.865234375
vt 0.65234375 0.865234375
vt 0.65234375 0.7578125
vt 0.49755859375 0.44921875
vt 0.39111328125 0.44921875
vt 0.39111328125 0.37109375
vt 0.49755859375 0.37109375
vt 0.369140625 0.86328125
vt 0.349609375 0.86328125
vt 0.349609375 0.78515625
vt 0.369140625 0.78515625
vt 0.0751953125 0.44921875
vt 0 0.44921875
vt 0 0.37109375
vt 0.0751953125 0.37109375
vt 0.279296875 0.474609375
vt 0.134765625 0.474609375
vt 0.134765625 0.396484375
vt 0.279296875 0.396484375
vt 0.1640625 0.86328125
vt 0.01953125 0.86328125
vt 0.01953125 0.78515625
vt 0.1640625 0.78515625
vt 0.18359375 0.86328125
vt 0.1640625 0.86328125
vt 0.1640625 0.78515625
vt 0.18359375 0.78515625
vt 0.4287109375 0.86328125
vt 0.37109375 0.86328125
vt 0.37109375 0.78515625
vt 0.4287109375 0.78515625
vt 0.01953125 0.86328125
vt 0 0.86328125
vt 0 0.78515625
vt 0.01953125 0.78515625
vt 0.1328125 0.44921875
vt 0.0751953125 0.44921875
vt 0.0751953125 0.37109375
vt 0.1328125 0.37109375
vt 0.205078125 0.86328125
vt 0.185546875 0.86328125
vt 0.185546875 0.78515625
vt 0.205078125 0.78515625
vt 0.38818359375 0.44921875
vt 0.28173828125 0.44921875
vt 0.28173828125 0.37109375
vt 0.38818359375 0.37109375
vt 0.50390625 0.86328125
vt 0.4287109375 0.86328125
vt 0.4287109375 0.78515625
vt 0.50390625 0.78515625
vt 0.49755859375 0.47265625
vt 0.39111328125 0.47265625
vt 0.39111328125 0.44921875
vt 0.49755859375 0.44921875
vt 0.369140625 0.88671875
vt 0.349609375 0.88671875
vt 0.349609375 0.86328125
vt 0.369140625 0.86328125
vt 0.0751953125 0.47265625
vt 0 0.47265625
vt 0 0.44921875
vt 0.0751953125 0.44921875
vt 0.279296875 0.498046875
vt 0.134765625 0.498046875
vt 0.134765625 0.474609375
vt 0.279296875 0.474609375
vt 0.1640625 0.88671875
vt 0.01953125 0.88671875
vt 0.01953125 0.86328125
vt 0.1640625 0.86328125
vt 0.18359375 0.88671875
vt 0.1640625 0.88671875
vt 0.1640625 0.86328125
vt 0.18359375 0.86328125
vt 0.4287109375 0.88671875
vt 0.37109375 0.88671875
vt 0.37109375 0.86328125
vt 0.4287109375 0.86328125
vt 0.01953125 0.88671875
vt 0 0.88671875
vt 0 0.86328125
vt 0.01953125 0.86328125
vt 0.1328125 0.47265625
vt 0.0751953125 0.47265625
vt 0.0751953125 0.44921875
vt 0.1328125 0.44921875
vt 0.205078125 0.88671875
vt 0.185546875 0.88671875
vt 0.185546875 0.86328125
vt 0.205078125 0.86328125
vt 0.38818359375 0.47265625
vt 0.28173828125 0.47265625
vt 0.28173828125 0.44921875
vt 0.38818359375 0.44921875
vt 0.50390625 0.88671875
vt 0.4287109375 0.88671875
vt 0.4287109375 0.86328125
vt 0.50390625 0.86328125
vt 0.49755859375 0.560546875
vt 0.39111328125 0.560546875
vt 0.39111328125 0.47265625
vt 0.49755859375 0.47265625
vt 0.369140625 0.974609375
vt 0.349609375 0.974609375
vt 0.349609375 0.88671875
vt 0.369140625 0.88671875
vt 0.0751953125 0.560546875
vt 0 0.560546875
vt 0 0.47265625
vt 0.0751953125 0.47265625
vt 0.279296875 0.5859375
vt 0.134765625 0.5859375
vt 0.134765625 0.498046875
vt 0.279296875 0.498046875
vt 0.1640625 0.974609375
vt 0.01953125 0.974609375
vt 0.01953125 0.88671875
vt 0.1640625 0.88671875
vt 0.18359375 0.974609375
vt 0.1640625 0.974609375
vt 0.1640625 0.88671875
vt 0.18359375 0.88671875
vt 0.4287109375 0.974609375
vt 0.37109375 0.974609375
vt 0.37109375 0.88671875
vt 0.4287109375 0.88671875
vt 0.01953125 0.974609375
vt 0 0.974609375
vt 0 0.88671875
vt 0.01953125 0.88671875
vt 0.1328125 0.560546875
vt 0.0751953125 0.560546875
vt 0.0751953125 0.47265625
vt 0.1328125 0.47265625
vt 0.205078125 0.974609375
vt 0.185546875 0.974609375
vt 0.185546875 0.88671875
vt 0.205078125 0.88671875
vt 0.38818359375 0.560546875
vt 0.28173828125 0.560546875
vt 0.28173828125 0.47265625
vt 0.38818359375 0.47265625
vt 0.50390625 0.974609375
vt 0.4287109375 0.974609375
vt 0.4287109375 0.88671875
vt 0.50390625 0.88671875
vt 0.49755859375 0.5859375
vt 0.42236328125 0.5859375
vt 0.39111328125 0.560546875
vt 0.49755859375 0.560546875
vt 0.369140625 1
vt 0.349609375 1
vt 0.349609375 0.974609375
vt 0.369140625 0.974609375
vt 0.0751953125 0.5859375
vt 0 0.5859375
vt 0 0.560546875
vt 0.0751953125 0.560546875
vt 0.650390625 0.646484375
vt 0.505859375 0.646484375
vt 0.505859375 0.60546875
vt 0.650390625 0.60546875
vt 0.1640625 1
vt 0.01953125 1
vt 0.01953125 0.974609375
vt 0.1640625 0.974609375
vt 0.18359375 1
vt 0.1640625 1
vt 0.1640625 0.974609375
vt 0.18359375 0.974609375
vt 0.4287109375 1
vt 0.37109375 1
vt 0.37109375 0.974609375
vt 0.4287109375 0.974609375
vt 0.01953125 1
vt 0 1
vt 0 0.974609375
vt 0.01953125 0.974609375
vt 0.1328125 0.5859375
vt 0.0751953125 0.5859375
vt 0.0751953125 0.560546875
vt 0.1328125 0.560546875
vt 0.205078125 1
vt 0.185546875 1
vt 0.185546875 0.974609375
vt 0.205078125 0.974609375
vt 0.35693359375 0.5859375
vt 0.28173828125 0.5859375
vt 0.28173828125 0.560546875
vt 0.38818359375 0.560546875
vt 0.50390625 1
vt 0.4287109375 1
vt 0.4287109375 0.974609375
vt 0.50390625 0.974609375
vt 0.685546875 0.541015625
vt 0.685546875 0.517578125
vt 0.830078125 0.517578125
vt 0.830078125 0.541015625
vt 0.796875 0.6484375
vt 0.796875 0.755859375
vt 0.65234375 0.755859375
vt 0.65234375 0.6484375
vt 0.64453125 0.234375
vt 0.64453125 0.341796875
vt 0.5 0.341796875
vt 0.5 0.234375
vt 0.791015625 0.234375
vt 0.791015625 0.341796875
vt 0.646484375 0.341796875
vt 0.646484375 0.234375
vt 0.685546875 0.568359375
vt 0.685546875 0.54296875
vt 0.830078125 0.54296875
vt 0.830078125 0.568359375
vt 0.685546875 0.5703125
vt 0.830078125 0.5703125
vt 0.830078125 0.646484375
vt 0.685546875 0.646484375
vn 1 0 0
vn -1 0 0
vn 0 1 0
vn 0 -1 0
vn 0 0 1
vn 0 0 -1
vn 0 1 0
vn -1 0 0
vn 0 -1 0
vn 1 0 0
vn 0 1 0
vn 0 0 -1
vn 0 -1 0
vn 0 -1 0
vn 0 0 1
vn 0 1 0
vn 0 1 0
vn 0 0 -1
vn 0 -1 0
vn 0 -1 0
vn 0 0 1
vn 0 1 0
vn 0 0 -1
vn -1 0 0
vn 1 0 0
vn 0 0 1
vn 1 0 0
vn 0 0 -1
vn 0 0 1
vn 1 0 0
vn 0 0 -1
vn -1 0 0
vn 0 0 1
vn -1 0 0
vn 0 0 -1
vn -1 0 0
vn 1 0 0
vn 0 0 1
vn 1 0 0
vn 0 0 -1
vn 0 0 1
vn 0 0 1
vn -1 0 0
vn 1 0 0
vn 0 0 -1
vn -1 0 0
vn 0 1 0
vn 0 -1 0
vn 0 0 -1
vn 0 0 -1
vn 0 0 1
vn 0 0 1
vn 1 0 0
vn 0 0 -1
vn -1 0 0
vn 1 0 0
vn 1 0 0
vn 0 0 -1
vn -1 0 0
vn 0 0 1
vn -1 0 0
vn 0 0 -1
vn -1 0 0
vn 1 0 0
vn 0 0 -1
vn 0 0 1
vn 1 0 0
vn 0 0 -1
vn -1 0 0
vn 0 0 1
vn -1 0 0
vn 0 0 1
vn 1 0 0
vn 0 0 -1
vn 0 1 0
vn 0 -1 0
vn 1 0 0
vn 0 0 -1
vn -1 0 0
vn 0 0 -1
vn 0 0 1
vn 0 0 1
vn 1 0 0
vn 0 0 1
vn -1 0 0
vn 0 0 -1
vn -1 0 0
vn 1 0 0
vn 1 0 0
vn 0 0 -1
vn -1 0 0
vn 0 0 -1
vn 0 0 1
vn 0 0 1
vn 1 0 0
vn 0 0 1
vn -1 0 0
vn 0 0 -1
vn -1 0 0
vn 1 0 0
vn 1 0 0
vn 0 0 -1
vn -1 0 0
vn 0 0 -1
vn 0 0 1
vn 0 0 1
vn 1 0 0
vn 0 0 1
vn -1 0 0
vn 0 0 -1
vn -1 0 0
vn 1 0 0
vn 1 0 0
vn 0 0 -1
vn -1 0 0
vn 0 -0.6813253278587212 -0.7319807358245203
vn 0 0 1
vn 0 0 1
vn 1 0 0
vn 0 0 1
vn -1 0 0
vn 0 0 -1
vn -1 0 0
vn 1 0 0
vn 0 0 -1
vn 0 -1 0
vn 0 -1 0
vn 0 -1 0
vn 0 0 -1
vn 0 1 0
usemtl m_6eed1f4a-36b9-b63c-8ef4-5dc8199cd707
f 2/1/1 9/2/1 12/3/1 4/4/1
f 8/5/2 11/6/2 10/7/2 6/8/2
f 119/9/3 120/10/3 113/11/3 116/12/3
f 12/13/4 16/14/4 15/15/4 4/16/4
f 1/17/5 18/18/5 17/19/5 3/20/5
f 4/21/6 15/22/6 14/23/6 2/24/6
f 116/25/7 113/26/7 115/27/7 117/28/7
f 5/29/8 10/30/8 11/31/8 7/32/8
f 3/33/9 17/34/9 16/35/9 12/36/9
f 3/37/10 12/38/10 9/39/10 1/40/10
f 14/41/11 20/42/11 19/43/11 13/44/11
f 15/45/12 21/46/12 20/47/12 14/48/12
f 16/49/13 22/50/13 21/51/13 15/52/13
f 17/53/14 23/54/14 22/55/14 16/56/14
f 18/57/15 24/58/15 23/59/15 17/60/15
f 113/61/16 110/62/16 114/63/16 115/64/16
f 109/65/17 110/66/17 111/67/17 112/68/17
f 6/69/18 20/70/18 21/71/18 8/72/18
f 8/73/19 21/74/19 22/75/19 11/76/19
f 11/77/20 22/78/20 23/79/20 7/80/20
f 7/81/21 23/82/21 24/83/21 5/84/21
f 118/85/22 114/86/22 110/87/22 109/88/22
f 27/89/23 25/90/23 2/91/23 14/92/23
f 26/93/24 27/94/24 14/95/24 13/96/24
f 25/97/25 28/98/25 9/99/25 2/100/25
f 30/101/26 29/102/26 18/103/26 1/104/26
f 28/105/27 30/106/27 1/107/27 9/108/27
f 32/109/28 26/110/28 13/111/28 19/112/28
f 29/113/29 31/114/29 24/115/29 18/116/29
f 34/117/30 32/118/30 19/119/30 20/120/30
f 35/121/31 34/122/31 20/123/31 6/124/31
f 33/125/32 35/126/32 6/127/32 10/128/32
f 31/129/33 36/130/33 5/131/33 24/132/33
f 36/133/34 33/134/34 10/135/34 5/136/34
f 39/137/35 37/138/35 25/139/35 27/140/35
f 38/141/36 39/142/36 27/143/36 26/144/36
f 37/145/37 40/146/37 28/147/37 25/148/37
f 42/149/38 41/150/38 29/151/38 30/152/38
f 40/153/39 42/154/39 30/155/39 28/156/39
f 44/157/40 38/158/40 26/159/40 32/160/40
f 41/161/41 43/162/41 31/163/41 29/164/41
f 43/165/42 45/166/42 36/167/42 31/168/42
f 45/169/43 46/170/43 33/171/43 36/172/43
f 47/173/44 44/174/44 32/175/44 34/176/44
f 48/177/45 47/178/45 34/179/45 35/180/45
f 46/181/46 48/182/46 35/183/46 33/184/46
f 44/185/47 38/186/47 39/187/47 47/188/47
f 27/189/48 26/190/48 32/191/48 34/192/48
f 39/193/49 27/194/49 34/195/49 47/196/49
f 51/197/50 49/198/50 38/199/50 44/200/50
f 52/201/51 50/202/51 43/203/51 41/204/51
f 54/205/52 52/206/52 41/207/52 42/208/52
f 53/209/53 54/210/53 42/211/53 40/212/53
f 56/213/54 55/214/54 37/215/54 39/216/54
f 49/217/55 56/218/55 39/219/55 38/220/55
f 55/221/56 53/222/56 40/223/56 37/224/56
f 58/225/57 51/226/57 44/227/57 47/228/57
f 59/229/58 58/230/58 47/231/58 48/232/58
f 57/233/59 59/234/59 48/235/59 46/236/59
f 50/237/60 60/238/60 45/239/60 43/240/60
f 60/241/61 57/242/61 46/243/61 45/244/61
f 63/245/62 61/246/62 55/247/62 56/248/62
f 62/249/63 63/250/63 56/251/63 49/252/63
f 61/253/64 64/254/64 53/255/64 55/256/64
f 66/257/65 62/258/65 49/259/65 51/260/65
f 67/261/66 65/262/66 50/263/66 52/264/66
f 69/265/67 66/266/67 51/267/67 58/268/67
f 70/269/68 69/270/68 58/271/68 59/272/68
f 68/273/69 70/274/69 59/275/69 57/276/69
f 65/277/70 71/278/70 60/279/70 50/280/70
f 71/281/71 68/282/71 57/283/71 60/284/71
f 72/285/72 67/286/72 52/287/72 54/288/72
f 64/289/73 72/290/73 54/291/73 53/292/73
f 63/293/74 56/294/74 58/295/74 69/296/74
f 66/297/75 62/298/75 63/299/75 69/300/75
f 56/301/76 49/302/76 51/303/76 58/304/76
f 75/305/77 74/306/77 66/307/77 69/308/77
f 76/309/78 75/310/78 69/311/78 70/312/78
f 73/313/79 76/314/79 70/315/79 68/316/79
f 74/317/80 77/318/80 62/319/80 66/320/80
f 79/321/81 78/322/81 65/323/81 67/324/81
f 81/325/82 79/326/82 67/327/82 72/328/82
f 80/329/83 81/330/83 72/331/83 64/332/83
f 78/333/84 82/334/84 71/335/84 65/336/84
f 82/337/85 73/338/85 68/339/85 71/340/85
f 84/341/86 83/342/86 61/343/86 63/344/86
f 77/345/87 84/346/87 63/347/87 62/348/87
f 83/349/88 80/350/88 64/351/88 61/352/88
f 87/353/89 86/354/89 74/355/89 75/356/89
f 88/357/90 87/358/90 75/359/90 76/360/90
f 85/361/91 88/362/91 76/363/91 73/364/91
f 86/365/92 89/366/92 77/367/92 74/368/92
f 91/369/93 90/370/93 78/371/93 79/372/93
f 93/373/94 91/374/94 79/375/94 81/376/94
f 92/377/95 93/378/95 81/379/95 80/380/95
f 90/381/96 94/382/96 82/383/96 78/384/96
f 94/385/97 85/386/97 73/387/97 82/388/97
f 96/389/98 95/390/98 83/391/98 84/392/98
f 89/393/99 96/394/99 84/395/99 77/396/99
f 95/397/100 92/398/100 80/399/100 83/400/100
f 99/401/101 98/402/101 86/403/101 87/404/101
f 100/405/102 99/406/102 87/407/102 88/408/102
f 97/409/103 100/410/103 88/411/103 85/412/103
f 98/413/104 101/414/104 89/415/104 86/416/104
f 103/417/105 102/418/105 90/419/105 91/420/105
f 105/421/106 103/422/106 91/423/106 93/424/106
f 104/425/107 105/426/107 93/427/107 92/428/107
f 102/429/108 106/430/108 94/431/108 90/432/108
f 106/433/109 97/434/109 85/435/109 94/436/109
f 108/437/110 107/438/110 95/439/110 96/440/110
f 101/441/111 108/442/111 96/443/111 89/444/111
f 107/445/112 104/446/112 92/447/112 95/448/112
f 111/449/113 110/450/113 98/451/113 99/452/113
f 112/453/114 111/454/114 99/455/114 100/456/114
f 109/457/115 112/458/115 100/459/115 97/460/115
f 110/461/116 113/462/116 101/463/116 98/464/116
f 115/465/117 114/466/117 102/467/117 103/468/117
f 117/469/118 115/470/118 103/471/118 105/472/118
f 116/473/119 117/474/119 105/475/119 104/476/119
f 114/477/120 118/478/120 106/479/120 102/480/120
f 118/481/121 109/482/121 97/483/121 106/484/121
f 120/485/122 119/486/122 107/487/122 108/488/122
f 113/489/123 120/490/123 108/491/123 101/492/123
f 119/493/124 116/494/124 104/495/124 107/496/124
f 96/497/125 84/498/125 75/499/125 87/500/125
f 96/501/126 89/502/126 86/503/126 87/504/126
f 84/505/127 77/506/127 74/507/127 75/508/127
f 108/509/128 101/510/128 98/511/128 99/512/128
f 120/513/129 108/514/129 99/515/129 111/516/129
f 110/517/130 113/518/130 120/519/130 111/520/130