# Made in Blockbench 4.10.4
mtllib MusicBox.mtl

o cuboid
v 1.5 2.875 1.5
v 1.5 2.875 -1.5
v 1.5 0 1.5
v 1.5 0 -1.5
v -1.5 2.875 1.5
v -1.5 2.875 -1.5
v -1.5 0 1.5
v -1.5 0 -1.5
v -1.5 1.65625 0.25
v -1.5 1.65625 -0.25
v -1.5 1.21875 0.25
v -1.5 1.21875 -0.25
v -2 1.65625 0.25
v -2 1.65625 -0.25
v -2 1.21875 0.25
v -2 1.21875 -0.25
v -2.4375 1.65625 0.25
v -2.4375 1.65625 -0.25
v -2.4375 1.21875 0.25
v -2.4375 1.21875 -0.25
v -2.4375 2.46875 -0.25
v -2.4375 2.46875 0.25
v -2 2.46875 0.25
v -2 2.46875 -0.25
v -2.4375 2.90625 -0.25
v -2.4375 2.90625 0.25
v -2 2.90625 0.25
v -2 2.90625 -0.25
v -2.8125 2.90625 0.25
v -2.8125 2.90625 -0.25
v -2.8125 2.46875 -0.25
v -2.8125 2.46875 0.25
vt 0.37890625 1
vt 0.19140625 1
vt 0.19140625 0.8203125
vt 0.37890625 0.8203125
vt 0 0.8125
vt 0.1875 0.8125
vt 0.1875 1
vt 0 1
vt 0.1875 0.62109375
vt 0.1875 0.80859375
vt 0 0.80859375
vt 0 0.62109375
vt 0.37890625 0.63671875
vt 0.37890625 0.81640625
vt 0.19140625 0.81640625
vt 0.19140625 0.63671875
vt 0.37890625 0.6328125
vt 0.19140625 0.6328125
vt 0.19140625 0.453125
vt 0.37890625 0.453125
vt 0.109375 0.541015625
vt 0.109375 0.513671875
vt 0.1875 0.4375
vt 0.1875 0.6171875
vt 0.078125 0.541015625
vt 0.109375 0.541015625
vt 0.1875 0.6171875
vt 0 0.6171875
vt 0.078125 0.513671875
vt 0.078125 0.541015625
vt 0 0.6171875
vt 0 0.4375
vt 0.109375 0.513671875
vt 0.078125 0.513671875
vt 0 0.4375
vt 0.1875 0.4375
vt 0.4140625 0.703125
vt 0.4140625 0.73046875
vt 0.3828125 0.73046875
vt 0.3828125 0.703125
vt 0.43359375 0.921875
vt 0.43359375 0.89453125
vt 0.46484375 0.89453125
vt 0.46484375 0.921875
vt 0.41796875 0.74609375
vt 0.41796875 0.71484375
vt 0.44921875 0.71484375
vt 0.44921875 0.74609375
vt 0.4140625 0.78515625
vt 0.4140625 0.8125
vt 0.3828125 0.8125
vt 0.3828125 0.78515625
vt 0.41015625 0.6171875
vt 0.41015625 0.5859375
vt 0.44140625 0.5859375
vt 0.44140625 0.6171875
vt 0.40625 0.921875
vt 0.40625 0.89453125
vt 0.43359375 0.89453125
vt 0.43359375 0.921875
vt 0.44140625 0.78125
vt 0.44140625 0.75
vt 0.46875 0.75
vt 0.46875 0.78125
vt 0.44140625 0.78515625
vt 0.44140625 0.8125
vt 0.4140625 0.8125
vt 0.4140625 0.78515625
vt 0.3828125 0.6171875
vt 0.3828125 0.5859375
vt 0.41015625 0.5859375
vt 0.41015625 0.6171875
vt 0.4140625 0.78125
vt 0.3828125 0.78125
vt 0.3828125 0.73046875
vt 0.4140625 0.73046875
vt 0.43359375 0.97265625
vt 0.40625 0.97265625
vt 0.40625 0.921875
vt 0.43359375 0.921875
vt 0.4140625 0.671875
vt 0.3828125 0.671875
vt 0.3828125 0.62109375
vt 0.4140625 0.62109375
vt 0.44140625 0.86328125
vt 0.4140625 0.86328125
vt 0.4140625 0.8125
vt 0.44140625 0.8125
vt 0.44921875 0.7109375
vt 0.41796875 0.7109375
vt 0.41796875 0.68359375
vt 0.44921875 0.68359375
vt 0.43359375 1
vt 0.40625 1
vt 0.40625 0.97265625
vt 0.43359375 0.97265625
vt 0.4140625 0.69921875
vt 0.3828125 0.69921875
vt 0.3828125 0.671875
vt 0.4140625 0.671875
vt 0.44140625 0.890625
vt 0.4140625 0.890625
vt 0.4140625 0.86328125
vt 0.44140625 0.86328125
vt 0.41796875 0.78125
vt 0.41796875 0.75
vt 0.44140625 0.75
vt 0.44140625 0.78125
vt 0.46484375 0.86328125
vt 0.46484375 0.890625
vt 0.44140625 0.890625
vt 0.44140625 0.86328125
vt 0.3828125 0.890625
vt 0.3828125 0.859375
vt 0.40625 0.859375
vt 0.40625 0.890625
vt 0.3828125 1
vt 0.3828125 0.97265625
vt 0.40625 0.97265625
vt 0.40625 1
vn 1 0 0
vn 0 1 0
vn 0 -1 0
vn 0 0 1
vn 0 0 -1
vn -1 0 0
vn -1 0 0
vn -1 0 0
vn -1 0 0
vn -1 0 0
vn 0 0 1
vn 0 1 0
vn 0 0 -1
vn 0 -1 0
vn 0 0 1
vn 0 1 0
vn 0 0 -1
vn 0 -1 0
vn -1 0 0
vn 0 0 1
vn 1 0 0
vn 0 0 -1
vn -1 0 0
vn 0 0 1
vn 1 0 0
vn 0 0 -1
vn 0 1 0
vn 0 0 -1
vn 0 -1 0
vn 0 0 1
usemtl m_12e63408-18f7-32ec-6396-a208a70e91ea
f 2/1/1 1/2/1 3/3/1 4/4/1
f 5/5/2 1/6/2 2/7/2 6/8/2
f 4/9/3 3/10/3 7/11/3 8/12/3
f 3/13/4 1/14/4 5/15/4 7/16/4
f 6/17/5 2/18/5 4/19/5 8/20/5
f 9/21/6 11/22/6 7/23/6 5/24/6
f 10/25/7 9/26/7 5/27/7 6/28/7
f 12/29/8 10/30/8 6/31/8 8/32/8
f 11/33/9 12/34/9 8/35/9 7/36/9
f 19/37/10 17/38/10 18/39/10 20/40/10
f 13/41/11 15/42/11 11/43/11 9/44/11
f 14/45/12 13/46/12 9/47/12 10/48/12
f 16/49/13 14/50/13 10/51/13 12/52/13
f 15/53/14 16/54/14 12/55/14 11/56/14
f 17/57/15 19/58/15 15/59/15 13/60/15
f 25/61/16 26/62/16 27/63/16 28/64/16
f 20/65/17 18/66/17 14/67/17 16/68/17
f 19/69/18 20/70/18 16/71/18 15/72/18
f 22/73/19 21/74/19 18/75/19 17/76/19
f 23/77/20 22/78/20 17/79/20 13/80/20
f 24/81/21 23/82/21 13/83/21 14/84/21
f 21/85/22 24/86/22 14/87/22 18/88/22
f 29/89/23 30/90/23 31/91/23 32/92/23
f 27/93/24 26/94/24 22/95/24 23/96/24
f 28/97/25 27/98/25 23/99/25 24/100/25
f 25/101/26 28/102/26 24/103/26 21/104/26
f 30/105/27 29/106/27 26/107/27 25/108/27
f 31/109/28 30/110/28 25/111/28 21/112/28
f 32/113/29 31/114/29 21/115/29 22/116/29
f 29/117/30 32/118/30 22/119/30 26/120/30